<?xml version="1.0" encoding="UTF-8"?>
<svg id="Layer_1" data-name="Layer 1" xmlns="http://www.w3.org/2000/svg" xmlns:xlink="http://www.w3.org/1999/xlink" viewBox="0 0 643 311.19">
  <defs>
    <style>
      .cls-1 {
        fill: url(#linear-gradient);
      }

      .cls-1, .cls-2, .cls-3, .cls-4, .cls-5 {
        stroke-width: 0px;
      }

      .cls-2 {
        fill: #000;
        opacity: .2;
      }

      .cls-6 {
        fill: none;
        stroke: #cf0000;
        stroke-miterlimit: 10;
        stroke-width: 9px;
      }

      .cls-3 {
        fill: url(#linear-gradient-2);
      }

      .cls-4 {
        fill: url(#linear-gradient-3);
      }

      .cls-5 {
        fill: #1d1d1f;
      }
    </style>
    <linearGradient id="linear-gradient" x1="31.31" y1="174.47" x2="119.16" y2="174.47" gradientUnits="userSpaceOnUse">
      <stop offset="0" stop-color="#ab0000"/>
      <stop offset=".5" stop-color="#c90000"/>
      <stop offset="1" stop-color="#ab0000"/>
    </linearGradient>
    <linearGradient id="linear-gradient-2" x1="446.23" y1="174.47" x2="507.5" y2="174.47" gradientUnits="userSpaceOnUse">
      <stop offset="0" stop-color="#ab0000"/>
      <stop offset=".5" stop-color="#c90000"/>
      <stop offset="1" stop-color="#ff6e00"/>
    </linearGradient>
    <linearGradient id="linear-gradient-3" x1="94.06" x2="258.39" xlink:href="#linear-gradient-2"/>
  </defs>
  <path class="cls-6" d="M476.5,181.62c0,38.38-31.12,69.5-69.5,69.5s-69.88-30.74-69.88-69.12l-.12-6.75c0-83.26-67.49-150.75-150.75-150.75S35.5,91.99,35.5,175.25"/>
  <path class="cls-5" d="M529.04,135.61h37.65c7.42,0,13.42,1.01,17.99,3.02,4.57,2.01,8.34,4.9,11.33,8.67,2.98,3.77,5.15,8.15,6.49,13.15,1.34,5,2.01,10.29,2.01,15.89,0,8.77-1,15.56-2.99,20.39-2,4.83-4.76,8.88-8.31,12.14-3.54,3.26-7.35,5.44-11.41,6.52-5.56,1.49-10.59,2.24-15.11,2.24h-37.65v-82.01Z"/>
  <path class="cls-5" d="M259.2,135.61h2.05c7.42,0,13.42,1.01,17.99,3.02,4.57,2.01,8.34,4.9,11.33,8.67,2.98,3.77,5.15,8.15,6.49,13.15,1.34,5,2.01,10.29,2.01,15.89,0,8.77-1,15.56-2.99,20.39-2,4.83-4.76,8.88-8.31,12.14-3.54,3.26-7.35,5.44-11.41,6.52-5.56,1.49-10.59,2.24-15.11,2.24h-2.05v-82.01Z"/>
  <path class="cls-5" d="M265.31,217.47v-1.56c0-3.45.57-7.29,1.71-11.54.83-3.1,2.49-6.01,4.98-8.72,2.49-2.71,5.58-4.82,9.27-6.35,3.69-1.52,8.88-2.29,15.57-2.29,4.27,0,8.32.51,12.14,1.54,3.82,1.03,7.16,2.68,10.04,4.96,2.88,2.28,5.08,5.16,6.62,8.65,1.54,3.49,2.31,8.07,2.31,13.74v1.56s-62.64,0-62.64,0Z"/>
  <circle class="cls-1" cx="75.24" cy="174.47" r="43.93"/>
  <path class="cls-2" d="M92.03,133.88c-5.75,12.34-8.97,26.09-8.97,40.6s3.22,28.26,8.97,40.6c15.93-6.6,27.14-22.28,27.14-40.6s-11.21-34-27.14-40.6Z"/>
  <circle class="cls-3" cx="476.86" cy="174.47" r="30.64"/>
  <path class="cls-4" d="M190.41,174.47l67.98-67.98c-17.42-17.45-41.5-28.25-68.1-28.25-53.14,0-96.22,43.08-96.22,96.22s43.08,96.22,96.22,96.22c26.6,0,50.68-10.8,68.1-28.25l-67.98-67.98Z"/>
  <path class="cls-5" d="M393.5,174.38h44.07c-.05-24.22-19.7-43.83-43.93-43.83s-43.93,19.67-43.93,43.93,19.59,43.85,43.79,43.92v-44.02Z"/>
</svg>